<svg width="20" height="20" viewBox="0 0 20 20" fill="none" xmlns="http://www.w3.org/2000/svg">
<g clip-path="url(#clip0_136_2)">
<rect width="20" height="20" fill="#D4C9F3"/>
<path d="M0 11V11C0.552285 11 1 10.5523 1 10V7C1 6.44772 1.44772 6 2 6V6C2.55228 6 3 6.44772 3 7V12C3 12.5523 3.44772 13 4 13V13C4.55228 13 5 12.5523 5 12V10C5 9.44772 5.44772 9 6 9V9C6.55228 9 7 9.44772 7 10V10C7 10.5523 7.44772 11 8 11V11C8.55228 11 9 11.4477 9 12V12C9 12.5523 9.44772 13 10 13V13C10.5523 13 11 12.5523 11 12V7C11 6.44772 11.4477 6 12 6V6C12.5523 6 13 5.55228 13 5V3C13 2.44772 13.4477 2 14 2V2C14.5523 2 15 2.44772 15 3V7C15 7.55228 15.4477 8 16 8V8C16.5523 8 17 7.55228 17 7V5C17 4.44772 17.4477 4 18 4V4C18.5523 4 19 4.44772 19 5V9C19 9.55228 19.4477 10 20 10V10" stroke="black" stroke-width="0.0714" stroke-dasharray="0.4 0.2"/>
<path d="M0 13.5H0.25C0.664214 13.5 1 13.8358 1 14.25V14.25C1 14.6642 1.33579 15 1.75 15H2C2.55228 15 3 15.4477 3 16V17C3 17.5523 3.44772 18 4 18V18V18C4.55228 18 5 17.5523 5 17V14C5 13.4477 5.44772 13 6 13V13C6.55228 13 7 13.4477 7 14V14C7 14.5523 7.44772 15 8 15V15C8.55228 15 9 14.5523 9 14V14C9 13.4477 9.44772 13 10 13V13C10.5523 13 11 13.4477 11 14V17C11 17.5523 11.4477 18 12 18V18C12.5523 18 13 17.5523 13 17V10C13 9.44772 13.4477 9 14 9V9C14.5523 9 15 9.44772 15 10V11C15 11.5523 15.4477 12 16 12V12C16.5523 12 17 12.4477 17 13V14C17 14.5523 17.4477 15 18 15V15C18.5523 15 19 14.5523 19 14V13C19 12.4477 19.4477 12 20 12V12" stroke="black" stroke-width="0.0714"/>
<path d="M0 4H0.5C1.32843 4 2 3.32843 2 2.5V2C2 1.44772 2.44772 1 3 1V1C3.55228 1 4 1.44772 4 2V3C4 3.55228 4.44772 4 5 4V4C5.55228 4 6 4.44772 6 5V6C6 6.55228 6.44772 7 7 7V7C7.55228 7 8 6.55228 8 6V3C8 2.44772 8.44772 2 9 2V2C9.55228 2 10 2.44772 10 3V8C10 8.55228 10.4477 9 11 9V9C11.5523 9 12 9.44772 12 10V11C12 11.5523 12.4477 12 13 12V12C13.5523 12 14 12.4477 14 13V13C14 13.5523 14.4477 14 15 14V14C15.5523 14 16 14.4477 16 15V15C16 15.5523 16.4477 16 17 16V16C17.5523 16 18 15.5523 18 15V15C18 14.4477 18.4477 14 19 14H20" stroke="#F5F3FC" stroke-width="0.0714"/>
<path d="M0 8.5H1C1.55228 8.5 2 8.94772 2 9.5V9.5C2 10.0523 2.44772 10.5 3 10.5V10.5C3.55228 10.5 4 10.0523 4 9.5V9C4 8.44772 4.44772 8 5 8V8C5.55228 8 6 8.44772 6 9V11.5C6 12.0523 6.44772 12.5 7 12.5V12.5C7.55228 12.5 8 12.0523 8 11.5V11C8 10.4477 8.44772 10 9 10V10C9.55228 10 10 10.4477 10 11V13C10 13.5523 10.4477 14 11 14V14C11.5523 14 12 14.4477 12 15V15.5C12 16.0523 12.4477 16.5 13 16.5V16.5C13.5523 16.5 14 16.0523 14 15.5V11C14 10.4477 14.4477 10 15 10V10C15.5523 10 16 9.55228 16 9V7C16 6.44772 16.4477 6 17 6V6C17.5523 6 18 5.55228 18 5V4C18 2.89543 18.8954 2 20 2V2" stroke="#F5F3FC" stroke-width="0.0714" stroke-dasharray="0.4 0.2"/>
<circle cx="17" cy="16" r="0.165" fill="#D4C9F3" stroke="#F5F3FC" stroke-width="0.07"/>
<circle cx="14" cy="8.99999" r="0.165" fill="#D4C9F3" stroke="black" stroke-width="0.07"/>
<circle cx="8.00005" cy="15" r="0.165" fill="#D4C9F3" stroke="black" stroke-width="0.07"/>
<circle cx="4.00005" cy="18" r="0.165" fill="#D4C9F3" stroke="black" stroke-width="0.07"/>
<circle cx="7.00005" cy="6.99999" r="0.165" fill="#D4C9F3" stroke="#F5F3FC" stroke-width="0.07"/>
<circle cx="9.00005" cy="1.99999" r="0.165" fill="#D4C9F3" stroke="#F5F3FC" stroke-width="0.07"/>
</g>
<defs>
<clipPath id="clip0_136_2">
<rect width="20" height="20" fill="white"/>
</clipPath>
</defs>
</svg>
