<svg width="20" height="20" viewBox="0 0 20 20" fill="none" xmlns="http://www.w3.org/2000/svg">
<g clip-path="url(#clip0_136_45)">
<rect width="20" height="20" transform="translate(0 20) rotate(-90)" fill="#D4C9F3"/>
<path d="M10 18L10 18.035H10L10 18ZM20 1.035C20.0193 1.035 20.035 1.01933 20.035 1C20.035 0.98067 20.0193 0.965 20 0.965L20 1.035ZM3.965 20C3.965 20.0193 3.98067 20.035 4 20.035C4.01933 20.035 4.035 20.0193 4.035 20L3.965 20ZM20 16.035C20.0193 16.035 20.035 16.0193 20.035 16C20.035 15.9807 20.0193 15.965 20 15.965L20 16.035ZM7.965 20C7.965 20.0193 7.98067 20.035 8 20.035C8.01933 20.035 8.035 20.0193 8.035 20L7.965 20ZM14 18L14 18.035L14 18ZM10 18.035L14 18.035L14 17.965L10 17.965L10 18.035ZM16 15.965L15 15.965L15 16.035L16 16.035L16 15.965ZM15.035 16L15.035 13L14.965 13L14.965 16L15.035 16ZM15 13.035L18 13.035L18 12.965L15 12.965L15 13.035ZM18.035 13L18.035 7L17.965 7L17.965 13L18.035 13ZM18.035 7L18.035 6L17.965 6L17.965 7L18.035 7ZM19 5.035L20 5.035L20 4.965L19 4.965L19 5.035ZM10 17.965L9 17.965L9 18.035L10 18.035L10 17.965ZM14.965 19L14.965 20L15.035 20L15.035 19L14.965 19ZM18 13.035L20 13.035L20 12.965L18 12.965L18 13.035ZM15 15.965L12 15.965L12 16.035L15 16.035L15 15.965ZM12 15.965L10 15.965L10 16.035L12 16.035L12 15.965ZM11.965 12L11.965 16L12.035 16L12.035 12L11.965 12ZM11.965 3L11.965 9L12.035 9L12.035 3L11.965 3ZM12 8.965L9 8.965L9 9.035L12 9.035L12 8.965ZM7.965 10L7.965 16L8.035 16L8.035 10L7.965 10ZM3.965 17L3.965 20L4.035 20L4.035 17L3.965 17ZM9.965 16L9.965 18L10.035 18L10.035 16L9.965 16ZM8 16.035L10 16.035L10 15.965L8 15.965L8 16.035ZM12.035 3L12.035 2L11.965 2L11.965 3L12.035 3ZM13 1.035L20 1.035L20 0.965L13 0.965L13 1.035ZM8 15.965L5 15.965L5 16.035L8 16.035L8 15.965ZM16 16.035L20 16.035L20 15.965L16 15.965L16 16.035ZM7.965 19L7.965 20L8.035 20L8.035 19L7.965 19ZM15 10.965L13 10.965L13 11.035L15 11.035L15 10.965ZM14.965 9L14.965 11L15.035 11L15.035 9L14.965 9ZM14.965 11L14.965 13L15.035 13L15.035 11L14.965 11ZM18 6.965L16 6.965L16 7.035L18 7.035L18 6.965ZM14.965 8L14.965 9L15.035 9L15.035 8L14.965 8ZM12 9.035L15 9.035L15 8.965L12 8.965L12 9.035ZM5 15.965C4.42839 15.965 3.965 16.4284 3.965 17L4.035 17C4.035 16.467 4.46705 16.035 5 16.035L5 15.965ZM12.035 12C12.035 11.467 12.467 11.035 13 11.035L13 10.965C12.4284 10.965 11.965 11.4284 11.965 12L12.035 12ZM9 8.965C8.42839 8.965 7.965 9.42839 7.965 10L8.035 10C8.035 9.46705 8.46705 9.035 9 9.035L9 8.965ZM9 17.965C8.42839 17.965 7.965 18.4284 7.965 19L8.035 19C8.035 18.467 8.46705 18.035 9 18.035L9 17.965ZM16 6.965C15.4284 6.965 14.965 7.42839 14.965 8L15.035 8C15.035 7.46705 15.467 7.035 16 7.035L16 6.965ZM18.035 6C18.035 5.46705 18.467 5.035 19 5.035L19 4.965C18.4284 4.965 17.965 5.42839 17.965 6L18.035 6ZM12.035 2C12.035 1.46705 12.467 1.035 13 1.035L13 0.965C12.4284 0.965 11.965 1.42839 11.965 2L12.035 2ZM14 18.035C14.533 18.035 14.965 18.467 14.965 19L15.035 19C15.035 18.4284 14.5716 17.965 14 17.965L14 18.035Z" fill="#F5F3FC"/>
<path d="M0 18L1 18C1.55228 18 2 17.5523 2 17L2 14M2 14L2 10L1 10M2 14L5 14L6 14C6.55228 14 7 13.5523 7 13V13M1 10L9.5399e-08 10M1 10L4 10C4.55228 10 5 9.55228 5 9L5 8M2 3L2 5C2 5.55228 1.55228 6 1 6L1.43099e-07 6M2 3L2 2.38498e-08M2 3L6 3C6.55228 3 7 2.55228 7 2V2L7 8.34742e-08M9 6L9 2L9 1.07324e-07M9 6L9 7C9 7.55228 8.55228 8 8 8L7 8M9 6L10 6M5 8L7 8M5 8L5 3M7 8L7 12L7 13M7 13L9 13C9.55228 13 10 12.5523 10 12L10 11L10 6M10 6L13 6C13.5523 6 14 5.55228 14 5V5L14 1.66948e-07" stroke="black" stroke-width="0.07" stroke-linecap="round" stroke-dasharray="0.4 0.2"/>
<circle cx="9.00005" cy="5.99995" r="0.165" transform="rotate(-90 9.00005 5.99995)" fill="#D4C9F3" stroke="black" stroke-width="0.07"/>
<circle cx="14" cy="4.99995" r="0.165" transform="rotate(-90 14 4.99995)" fill="#D4C9F3" stroke="black" stroke-width="0.07"/>
<circle cx="7.00005" cy="1.99995" r="0.165" transform="rotate(-90 7.00005 1.99995)" fill="#D4C9F3" stroke="black" stroke-width="0.07"/>
<circle cx="2.00005" cy="2.99995" r="0.165" transform="rotate(-90 2.00005 2.99995)" fill="#D4C9F3" stroke="black" stroke-width="0.07"/>
<circle cx="1.00005" cy="9.99995" r="0.165" transform="rotate(-90 1.00005 9.99995)" fill="#D4C9F3" stroke="black" stroke-width="0.07"/>
<circle cx="7.00005" cy="13" r="0.165" transform="rotate(-90 7.00005 13)" fill="#D4C9F3" stroke="black" stroke-width="0.07"/>
<circle cx="10" cy="11" r="0.165" transform="rotate(-90 10 11)" fill="#D4C9F3" stroke="black" stroke-width="0.07"/>
<circle cx="5.00005" cy="7.99995" r="0.165" transform="rotate(-90 5.00005 7.99995)" fill="#D4C9F3" stroke="black" stroke-width="0.07"/>
<circle cx="2.00005" cy="14" r="0.165" transform="rotate(-90 2.00005 14)" fill="#D4C9F3" stroke="black" stroke-width="0.07"/>
<circle cx="18" cy="13" r="0.165" transform="rotate(-90 18 13)" fill="#D4C9F3" stroke="#F5F3FC" stroke-width="0.07"/>
<circle cx="15" cy="16" r="0.165" transform="rotate(-90 15 16)" fill="#D4C9F3" stroke="#F5F3FC" stroke-width="0.07"/>
<circle cx="12" cy="12" r="0.165" transform="rotate(-90 12 12)" fill="#D4C9F3" stroke="#F5F3FC" stroke-width="0.07"/>
<circle cx="8.00005" cy="9.99995" r="0.165" transform="rotate(-90 8.00005 9.99995)" fill="#D4C9F3" stroke="#F5F3FC" stroke-width="0.07"/>
<circle cx="12" cy="2.99995" r="0.165" transform="rotate(-90 12 2.99995)" fill="#D4C9F3" stroke="#F5F3FC" stroke-width="0.07"/>
<circle cx="15" cy="8.99995" r="0.165" transform="rotate(-90 15 8.99995)" fill="#D4C9F3" stroke="#F5F3FC" stroke-width="0.07"/>
<circle cx="10" cy="18" r="0.165" transform="rotate(-90 10 18)" fill="#D4C9F3" stroke="#F5F3FC" stroke-width="0.07"/>
<circle cx="6.00005" cy="16" r="0.165" transform="rotate(-90 6.00005 16)" fill="#D4C9F3" stroke="#F5F3FC" stroke-width="0.07"/>
</g>
<defs>
<clipPath id="clip0_136_45">
<rect width="20" height="20" fill="white" transform="translate(0 20) rotate(-90)"/>
</clipPath>
</defs>
</svg>
