<svg width="20" height="20" viewBox="0 0 20 20" fill="none" xmlns="http://www.w3.org/2000/svg">
<g clip-path="url(#clip0_156_355)">
<rect width="20" height="20" transform="translate(0 20) rotate(-90)" fill="#D4C9F3"/>
<path d="M3 14L2 16" stroke="black" stroke-width="0.07" stroke-linecap="round"/>
<path d="M4 3L5 5" stroke="black" stroke-width="0.07" stroke-linecap="round"/>
<path d="M16 9L17 10" stroke="#F5F3FC" stroke-width="0.07" stroke-linecap="round"/>
<path d="M15 18L17 16" stroke="#F5F3FC" stroke-width="0.07" stroke-linecap="round"/>
<circle cx="7.99995" cy="-1.22239e-05" r="0.165" transform="rotate(90 7.99995 -1.22239e-05)" fill="#D4C9F3" stroke="#F5F3FC" stroke-width="0.07"/>
<ellipse cx="8" cy="7.94466e-08" rx="4" ry="4" transform="rotate(90 8 7.94466e-08)" stroke="#F5F3FC" stroke-width="0.07" stroke-linecap="round" stroke-dasharray="0.4 0.2"/>
<circle cx="4.99995" cy="4.99999" r="0.165" transform="rotate(90 4.99995 4.99999)" fill="#D4C9F3" stroke="black" stroke-width="0.07"/>
<ellipse cx="5" cy="5" rx="4" ry="4" transform="rotate(90 5 5)" stroke="black" stroke-width="0.07" stroke-linecap="round" stroke-dasharray="0.4 0.2"/>
<circle cx="-4.8851e-05" cy="8.99999" r="0.165" transform="rotate(90 -4.8851e-05 8.99999)" fill="#D4C9F3" stroke="#F5F3FC" stroke-width="0.07"/>
<ellipse cx="7.94465e-08" cy="9" rx="4" ry="4" transform="rotate(90 7.94465e-08 9)" stroke="#F5F3FC" stroke-width="0.07" stroke-linecap="round" stroke-dasharray="0.4 0.2"/>
<circle cx="5.99995" cy="9.99999" r="0.165" transform="rotate(90 5.99995 9.99999)" fill="#D4C9F3" stroke="#F5F3FC" stroke-width="0.07"/>
<ellipse cx="6" cy="10" rx="4" ry="4" transform="rotate(90 6 10)" stroke="#F5F3FC" stroke-width="0.07" stroke-linecap="round" stroke-dasharray="0.4 0.2"/>
<circle cx="3.99995" cy="2.99999" r="0.165" transform="rotate(90 3.99995 2.99999)" fill="#D4C9F3" stroke="black" stroke-width="0.07"/>
<ellipse cx="4" cy="3" rx="4" ry="4" transform="rotate(90 4 3)" stroke="black" stroke-width="0.07" stroke-linecap="round" stroke-dasharray="0.4 0.2"/>
<circle cx="17" cy="2.99999" r="0.165" transform="rotate(90 17 2.99999)" fill="#D4C9F3" stroke="black" stroke-width="0.07"/>
<ellipse cx="17" cy="3" rx="4" ry="4" transform="rotate(90 17 3)" stroke="black" stroke-width="0.07" stroke-linecap="round" stroke-dasharray="0.4 0.2"/>
<circle cx="13" cy="-1.22239e-05" r="0.165" transform="rotate(90 13 -1.22239e-05)" fill="#D4C9F3" stroke="#F5F3FC" stroke-width="0.07"/>
<ellipse cx="13" cy="7.94466e-08" rx="4" ry="4" transform="rotate(90 13 7.94466e-08)" stroke="#F5F3FC" stroke-width="0.07" stroke-linecap="round" stroke-dasharray="0.4 0.2"/>
<circle cx="16" cy="8.99999" r="0.165" transform="rotate(90 16 8.99999)" fill="#D4C9F3" stroke="#F5F3FC" stroke-width="0.07"/>
<ellipse cx="16" cy="9" rx="4" ry="4" transform="rotate(90 16 9)" stroke="#F5F3FC" stroke-width="0.07" stroke-linecap="round" stroke-dasharray="0.4 0.2"/>
<circle cx="17" cy="9.99999" r="0.165" transform="rotate(90 17 9.99999)" fill="#D4C9F3" stroke="#F5F3FC" stroke-width="0.07"/>
<ellipse cx="17" cy="10" rx="4" ry="4" transform="rotate(90 17 10)" stroke="#F5F3FC" stroke-width="0.07" stroke-linecap="round" stroke-dasharray="0.4 0.2"/>
<circle cx="17" cy="16" r="0.165" transform="rotate(90 17 16)" fill="#D4C9F3" stroke="#F5F3FC" stroke-width="0.07"/>
<ellipse cx="17" cy="16" rx="4" ry="4" transform="rotate(90 17 16)" stroke="#F5F3FC" stroke-width="0.07" stroke-linecap="round" stroke-dasharray="0.4 0.2"/>
<circle cx="15" cy="18" r="0.165" transform="rotate(90 15 18)" fill="#D4C9F3" stroke="#F5F3FC" stroke-width="0.07"/>
<ellipse cx="15" cy="18" rx="4" ry="4" transform="rotate(90 15 18)" stroke="#F5F3FC" stroke-width="0.07" stroke-linecap="round" stroke-dasharray="0.4 0.2"/>
<ellipse cx="21" cy="20" rx="4" ry="4" transform="rotate(90 21 20)" stroke="black" stroke-width="0.07" stroke-linecap="round" stroke-dasharray="0.4 0.2"/>
<circle cx="7.99995" cy="18" r="0.165" transform="rotate(90 7.99995 18)" fill="#D4C9F3" stroke="black" stroke-width="0.07"/>
<ellipse cx="8" cy="18" rx="4" ry="4" transform="rotate(90 8 18)" stroke="black" stroke-width="0.07" stroke-linecap="round" stroke-dasharray="0.4 0.2"/>
<circle cx="0.999951" cy="19" r="0.165" transform="rotate(90 0.999951 19)" fill="#D4C9F3" stroke="#F5F3FC" stroke-width="0.07"/>
<ellipse cx="1" cy="19" rx="4" ry="4" transform="rotate(90 1 19)" stroke="#F5F3FC" stroke-width="0.07" stroke-linecap="round" stroke-dasharray="0.4 0.2"/>
<circle cx="2.99995" cy="14" r="0.165" transform="rotate(90 2.99995 14)" fill="#D4C9F3" stroke="black" stroke-width="0.07"/>
<ellipse cx="3" cy="14" rx="4" ry="4" transform="rotate(90 3 14)" stroke="black" stroke-width="0.07" stroke-linecap="round" stroke-dasharray="0.4 0.2"/>
<circle cx="1.99995" cy="16" r="0.165" transform="rotate(90 1.99995 16)" fill="#D4C9F3" stroke="black" stroke-width="0.07"/>
<ellipse cx="2" cy="16" rx="4" ry="4" transform="rotate(90 2 16)" stroke="black" stroke-width="0.07" stroke-linecap="round" stroke-dasharray="0.4 0.2"/>
</g>
<defs>
<clipPath id="clip0_156_355">
<rect width="20" height="20" fill="white" transform="translate(0 20) rotate(-90)"/>
</clipPath>
</defs>
</svg>
